<?xml version="1.0" encoding="utf-8"?>
<!-- Generator: Adobe Illustrator 18.1.0, SVG Export Plug-In . SVG Version: 6.00 Build 0)  -->
<!DOCTYPE svg PUBLIC "-//W3C//DTD SVG 1.1//EN" "http://www.w3.org/Graphics/SVG/1.1/DTD/svg11.dtd">
<svg version="1.1" id="Layer_1" xmlns="http://www.w3.org/2000/svg" xmlns:xlink="http://www.w3.org/1999/xlink" x="0px" y="0px"
	 viewBox="0 0 200 200" enable-background="new 0 0 200 200" xml:space="preserve">
<path fill="#1B88FA" d="M77,54.6H61.8l-5.6-15.9l-5.6,15.9H35.4l12.4,9.3l-4.4,16.4l12.8-9.8L69,80.3l-4.4-16.4L77,54.6z M56.2,65.9
	l-7.1,5.9l2.9-8.4l-6.7-5.4l8.3,0.2l2.6-9.5l2.6,9.5l8.3-0.2l-6.7,5.4l2.9,8.4L56.2,65.9z"/>
<path fill="#1B88FA" d="M120.8,54.6h-15.1L100,38.7l-5.6,15.9H79.2l12.4,9.3l-4.4,16.4l12.8-9.8l12.8,9.8l-4.4-16.4L120.8,54.6z
	 M100,65.9l-7.1,5.9l2.9-8.4l-6.7-5.4l8.3,0.2l2.6-9.5l2.6,9.5l8.3-0.2l-6.7,5.4l2.9,8.4L100,65.9z"/>
<path fill="#1B88FA" d="M164.6,54.6h-15.1l-5.6-15.9l-5.6,15.9H123l12.4,9.3L131,80.3l12.8-9.8l12.8,9.8l-4.4-16.4L164.6,54.6z
	 M143.8,65.9l-7.1,5.9l2.9-8.4l-6.7-5.4l8.3,0.2l2.6-9.5l2.6,9.5l8.3-0.2l-6.7,5.4l2.9,8.4L143.8,65.9z"/>
<path fill="#1B88FA" d="M77,96.2H61.8l-5.6-15.9l-5.6,15.9H35.4l12.4,9.3l-4.4,16.4l12.8-9.8l12.8,9.8l-4.4-16.4L77,96.2z
	 M56.2,107.4l-7.1,5.9l2.9-8.4l-6.7-5.4l8.3,0.2l2.6-9.5l2.6,9.5l8.3-0.2l-6.7,5.4l2.9,8.4L56.2,107.4z"/>
<path fill="#1B88FA" d="M120.8,96.2h-15.1L100,80.3l-5.6,15.9H79.2l12.4,9.3l-4.4,16.4l12.8-9.8l12.8,9.8l-4.4-16.4L120.8,96.2z
	 M100,107.4l-7.1,5.9l2.9-8.4l-6.7-5.4l8.3,0.2l2.6-9.5l2.6,9.5l8.3-0.2l-6.7,5.4l2.9,8.4L100,107.4z"/>
<path fill="#1B88FA" d="M164.6,96.2h-15.1l-5.6-15.9l-5.6,15.9H123l12.4,9.3l-4.4,16.4l12.8-9.8l12.8,9.8l-4.4-16.4L164.6,96.2z
	 M143.8,107.4l-7.1,5.9l2.9-8.4l-6.7-5.4l8.3,0.2l2.6-9.5l2.6,9.5l8.3-0.2l-6.7,5.4l2.9,8.4L143.8,107.4z"/>
<path fill="#1B88FA" d="M180,10H20C9,10,0,19,0,30v110c0,11,8.8,21.8,19.6,23.9l43.7,8.8c0,0-37.6,17.3-13.3,17.3h100
	c24.3,0-13.3-17.3-13.3-17.3l43.7-8.8C191.2,161.8,200,151,200,140V30C200,19,191,10,180,10z M180,140H20V30h160V140z"/>
</svg>
